<svg width="36" height="24" viewBox="0 0 36 24" fill="none" xmlns="http://www.w3.org/2000/svg">
<g opacity="0.5">
<path fill-rule="evenodd" clip-rule="evenodd" d="M16.8773 21.8895C14.4818 20.2712 12.7523 17.8657 12 15.1059L13.5431 14.6994C14.1991 16.9809 15.6657 18.9676 17.6871 20.31C19.7349 21.6698 22.2177 22.2791 24.6889 22.0281C27.1601 21.7772 29.4575 20.6825 31.168 18.9409C32.8784 17.1994 33.8896 14.9253 34.0196 12.5277C34.1497 10.1302 33.3901 7.76642 31.8774 5.86168C30.3647 3.95694 28.1983 2.6362 25.7678 2.13703C23.3373 1.63786 20.8022 1.99302 18.6185 3.13861C16.4732 4.26408 14.8053 6.07988 13.903 8.26866L12.3949 7.6996C13.4366 5.03214 15.4124 2.81757 17.9669 1.45422C20.5214 0.0908596 23.487 -0.331803 26.3302 0.26225C29.1734 0.856304 31.7077 2.42809 33.4773 4.69488C35.2468 6.96168 36.1354 9.77473 35.9833 12.6281C35.8311 15.4814 34.6482 18.1877 32.6474 20.2603C30.6465 22.3328 27.9589 23.6356 25.0681 23.9343C22.1773 24.2329 19.2729 23.5079 16.8773 21.8895Z" fill="#000"/>
<path fill="#000" d="M28 13C28.5523 13 29 12.5523 29 12C29 11.4477 28.5523 11 28 11V13ZM1.29289 11.2929C0.902369 11.6834 0.902369 12.3166 1.29289 12.7071L7.65685 19.0711C8.04738 19.4616 8.68054 19.4616 9.07107 19.0711C9.46159 18.6805 9.46159 18.0474 9.07107 17.6569L3.41421 12L9.07107 6.34315C9.46159 5.95262 9.46159 5.31946 9.07107 4.92893C8.68054 4.53841 8.04738 4.53841 7.65685 4.92893L1.29289 11.2929ZM28 11L2 11V13L28 13V11Z" />
</g>
</svg>
