<svg width="36" height="24" viewBox="0 0 36 24" fill="none" xmlns="http://www.w3.org/2000/svg">
<g opacity="0.5">
<path fill-rule="evenodd" clip-rule="evenodd" d="M19.1227 21.8895C21.5182 20.2712 23.2477 17.8657 24 15.1059L22.4569 14.6994C21.8009 16.9809 20.3343 18.9676 18.3129 20.31C16.2651 21.6698 13.7823 22.2791 11.3111 22.0281C8.83989 21.7772 6.54245 20.6825 4.83201 18.9409C3.12158 17.1994 2.1104 14.9253 1.98035 12.5277C1.85031 10.1302 2.60993 7.76642 4.12259 5.86168C5.63525 3.95694 7.80168 2.6362 10.2322 2.13703C12.6627 1.63786 15.1978 1.99302 17.3815 3.13861C19.5268 4.26408 21.1947 6.07988 22.097 8.26866L23.6051 7.6996C22.5634 5.03214 20.5876 2.81757 18.0331 1.45422C15.4786 0.0908596 12.513 -0.331803 9.66981 0.26225C6.82657 0.856304 4.29227 2.42809 2.52275 4.69488C0.753226 6.96168 -0.135387 9.77473 0.0167407 12.6281C0.168869 15.4814 1.35175 18.1877 3.35264 20.2603C5.35352 22.3328 8.04108 23.6356 10.9319 23.9343C13.8227 24.2329 16.7271 23.5079 19.1227 21.8895Z" fill="white"/>
<path d="M8 13C7.44772 13 7 12.5523 7 12C7 11.4477 7.44772 11 8 11V13ZM34.7071 11.2929C35.0976 11.6834 35.0976 12.3166 34.7071 12.7071L28.3431 19.0711C27.9526 19.4616 27.3195 19.4616 26.9289 19.0711C26.5384 18.6805 26.5384 18.0474 26.9289 17.6569L32.5858 12L26.9289 6.34315C26.5384 5.95262 26.5384 5.31946 26.9289 4.92893C27.3195 4.53841 27.9526 4.53841 28.3431 4.92893L34.7071 11.2929ZM8 11L34 11V13L8 13V11Z" fill="white"/>
</g>
</svg>
