<svg width="357" height="357" viewBox="0 0 357 357" fill="none" xmlns="http://www.w3.org/2000/svg">
<g filter="url(#filter0_b_229_11)">
<path fill-rule="evenodd" clip-rule="evenodd" d="M121.271 347.577C159.704 360.586 201.422 360.113 239.551 346.235L239.486 346.057C251.809 340.43 260.372 327.998 260.372 313.566C260.372 293.85 244.389 277.866 224.672 277.866C221.369 277.866 218.171 278.315 215.135 279.154L215.13 279.141L214.957 279.204C213.714 279.555 212.498 279.971 211.314 280.449C189.49 287.474 165.947 287.32 144.162 279.946C121.103 272.141 101.39 256.712 88.2735 236.202C75.1571 215.693 69.4196 191.326 72.0066 167.119C74.5936 142.912 85.3508 120.308 102.505 103.034C119.66 85.7593 142.187 74.8446 166.376 72.0887C190.565 69.3327 214.97 74.9 235.571 87.8729C256.172 100.846 271.738 120.45 279.704 143.455C287.67 166.46 287.561 191.492 279.394 214.427L279.452 214.448C278.192 218.099 277.507 222.02 277.507 226.1C277.507 245.817 293.491 261.8 313.207 261.8C329.684 261.8 343.553 250.638 347.667 235.464C360.269 198.041 360.114 157.461 347.173 120.092C333.896 81.7503 307.953 49.0763 273.618 27.4548C239.284 5.83322 198.608 -3.44552 158.293 1.14771C117.979 5.74094 80.4325 23.9321 51.8419 52.723C23.2512 81.514 5.32265 119.187 1.01097 159.532C-3.30073 199.877 6.26177 240.488 28.1225 274.671C49.9832 308.853 82.8375 334.568 121.271 347.577Z" fill="white"/>
</g>
<defs>
<filter id="filter0_b_229_11" x="-4" y="-4" width="365" height="365" filterUnits="userSpaceOnUse" color-interpolation-filters="sRGB">
<feFlood flood-opacity="0" result="BackgroundImageFix"/>
<feGaussianBlur in="BackgroundImage" stdDeviation="2"/>
<feComposite in2="SourceAlpha" operator="in" result="effect1_backgroundBlur_229_11"/>
<feBlend mode="normal" in="SourceGraphic" in2="effect1_backgroundBlur_229_11" result="shape"/>
</filter>
</defs>
</svg>
