<svg width="700" height="700" viewBox="0 0 700 700" fill="none" xmlns="http://www.w3.org/2000/svg">
<g filter="url(#filter0_b_38_68)">
<path fill-rule="evenodd" clip-rule="evenodd" d="M462.214 18.4764C386.855 -7.0313 305.054 -6.10327 230.293 21.1075L230.42 21.4563C206.257 32.4905 189.466 56.8664 189.466 85.164C189.466 123.824 220.806 155.164 259.466 155.164C265.943 155.164 272.213 154.284 278.166 152.638L278.175 152.664C278.29 152.623 278.404 152.581 278.518 152.54C280.954 151.853 283.335 151.037 285.655 150.1C328.449 136.325 374.613 136.627 417.328 151.086C462.544 166.39 501.196 196.643 526.914 236.858C552.633 277.073 563.883 324.85 558.81 372.315C553.738 419.78 532.645 464.101 499.009 497.972C465.373 531.844 421.201 553.245 373.772 558.649C326.344 564.053 278.489 553.137 238.096 527.7C197.702 502.263 167.18 463.823 151.561 418.715C135.941 373.608 136.155 324.524 152.168 279.555L152.054 279.514C154.526 272.354 155.868 264.667 155.868 256.666C155.868 218.006 124.528 186.666 85.8678 186.666C53.5611 186.666 26.366 208.552 18.3004 238.306C-6.4095 311.685 -6.10517 391.253 19.2678 464.526C45.301 539.705 96.1707 603.771 163.493 646.167C230.815 688.562 310.573 706.755 389.621 697.749C468.668 688.743 542.289 653.074 598.349 596.621C654.409 540.168 689.563 466.301 698.017 387.192C706.471 308.083 687.721 228.455 644.857 161.43C601.993 94.4053 537.573 43.9841 462.214 18.4764Z" fill="#292FB4"/>
</g>
<defs>
<filter id="filter0_b_38_68" x="-4" y="-4" width="708" height="708" filterUnits="userSpaceOnUse" color-interpolation-filters="sRGB">
<feFlood flood-opacity="0" result="BackgroundImageFix"/>
<feGaussianBlur in="BackgroundImage" stdDeviation="2"/>
<feComposite in2="SourceAlpha" operator="in" result="effect1_backgroundBlur_38_68"/>
<feBlend mode="normal" in="SourceGraphic" in2="effect1_backgroundBlur_38_68" result="shape"/>
</filter>
</defs>
</svg>
