<svg width="21" height="22" viewBox="0 0 21 22" fill="none" xmlns="http://www.w3.org/2000/svg">
<path d="M2.51426 2.57132H3.08564C3.25704 2.57132 3.37143 2.45712 3.37143 2.28552C3.37143 2.11412 3.25724 1.99973 3.08564 1.99973H2.51426C1.45696 1.99992 0.599976 2.85712 0.599976 3.91416V20.0856C0.599976 21.1427 1.45717 21.9999 2.51426 21.9999H18.6857C19.7428 21.9999 20.6 21.1427 20.6 20.0856V3.91416C20.6 2.85707 19.7428 1.99988 18.6857 1.99988H18.0284C17.857 1.99988 17.7426 2.11408 17.7426 2.28567C17.7426 2.45707 17.8568 2.57147 18.0284 2.57147H18.6855C19.4283 2.57147 20.0283 3.17157 20.0283 3.91433V7.42836H1.1712V3.91412C1.1712 3.17132 1.7711 2.57127 2.51406 2.57127L2.51426 2.57132ZM20.0286 7.99989V20.0856C20.0286 20.8284 19.4284 21.4285 18.6857 21.4285H2.51426C1.77145 21.4285 1.1714 20.8284 1.1714 20.0856V7.99989H20.0286Z" fill="black"/>
<path d="M6.97137 2.28577C6.97137 2.45716 7.08557 2.57156 7.25717 2.57156H13.9143C14.0857 2.57156 14.2001 2.45736 14.2001 2.28577C14.2001 2.11437 14.0859 1.99997 13.9143 1.99997H7.25717C7.11447 1.99997 6.97157 2.11417 6.97157 2.28577H6.97137Z" fill="black"/>
<path d="M4.31422 13.4285H5.7428C6.22849 13.4285 6.59999 13.057 6.59999 12.5713V11.1427C6.59999 10.6571 6.2285 10.2856 5.7428 10.2856H4.31422C3.82854 10.2856 3.45703 10.657 3.45703 11.1427V12.5713C3.45723 13.057 3.82852 13.4285 4.31422 13.4285V13.4285ZM4.02863 11.1427C4.02863 10.9713 4.14283 10.857 4.31442 10.857H5.743C5.91439 10.857 6.02879 10.9712 6.02879 11.1427V12.5713C6.02879 12.7427 5.91459 12.8571 5.743 12.8571H4.31442C4.14303 12.8571 4.02863 12.7429 4.02863 12.5713V11.1427Z" fill="black"/>
<path d="M9.74287 13.4285H11.1714C11.6571 13.4285 12.0286 13.057 12.0286 12.5713V11.1427C12.0286 10.6571 11.6572 10.2856 11.1714 10.2856H9.74287C9.25719 10.2856 8.88568 10.657 8.88568 11.1427V12.5713C8.88568 13.057 9.25717 13.4285 9.74287 13.4285ZM9.45708 11.1427C9.45708 10.9713 9.57128 10.857 9.74287 10.857H11.1714C11.3428 10.857 11.4572 10.9712 11.4572 11.1427V12.5713C11.4572 12.7427 11.343 12.8571 11.1714 12.8571H9.74287C9.57148 12.8571 9.45708 12.7429 9.45708 12.5713V11.1427Z" fill="black"/>
<path d="M15.1714 13.4285H16.6C17.0857 13.4285 17.4572 13.057 17.4572 12.5713V11.1427C17.4572 10.6571 17.0857 10.2856 16.6 10.2856H15.1714C14.6857 10.2856 14.3142 10.657 14.3142 11.1427V12.5713C14.3142 13.057 14.6857 13.4285 15.1714 13.4285ZM14.8858 11.1427C14.8858 10.9713 15 10.857 15.1716 10.857H16.6002C16.7716 10.857 16.886 10.9712 16.886 11.1427V12.5713C16.886 12.7427 16.7718 12.8571 16.6002 12.8571H15.1716C15.0002 12.8571 14.8858 12.7429 14.8858 12.5713V11.1427Z" fill="black"/>
<path d="M4.31422 18.8571H5.7428C6.22849 18.8571 6.59999 18.4856 6.59999 17.9999V16.5713C6.59999 16.0856 6.2285 15.7141 5.7428 15.7141H4.31422C3.82854 15.7141 3.45703 16.0856 3.45703 16.5713V17.9999C3.45723 18.4858 3.82852 18.8571 4.31422 18.8571V18.8571ZM4.02863 16.5715C4.02863 16.4001 4.14283 16.2857 4.31442 16.2857H5.743C5.91439 16.2857 6.02879 16.3999 6.02879 16.5715V18.0001C6.02879 18.1715 5.91459 18.2859 5.743 18.2859H4.31442C4.14303 18.2859 4.02863 18.1717 4.02863 18.0001V16.5715Z" fill="black"/>
<path d="M9.74287 18.8571H11.1714C11.6571 18.8571 12.0286 18.4856 12.0286 17.9999V16.5713C12.0286 16.0856 11.6572 15.7141 11.1714 15.7141H9.74287C9.25719 15.7141 8.88568 16.0856 8.88568 16.5713V17.9999C8.88568 18.4858 9.25717 18.8571 9.74287 18.8571ZM9.45708 16.5715C9.45708 16.4001 9.57128 16.2857 9.74287 16.2857H11.1714C11.3428 16.2857 11.4572 16.3999 11.4572 16.5715V18.0001C11.4572 18.1715 11.343 18.2859 11.1714 18.2859H9.74287C9.57148 18.2859 9.45708 18.1717 9.45708 18.0001V16.5715Z" fill="black"/>
<path d="M15.1714 18.8571H16.6C17.0857 18.8571 17.4572 18.4856 17.4572 17.9999V16.5713C17.4572 16.0856 17.0857 15.7141 16.6 15.7141H15.1714C14.6857 15.7141 14.3142 16.0856 14.3142 16.5713V17.9999C14.3142 18.4858 14.6857 18.8571 15.1714 18.8571ZM14.8858 16.5715C14.8858 16.4001 15 16.2857 15.1716 16.2857H16.6002C16.7716 16.2857 16.886 16.3999 16.886 16.5715V18.0001C16.886 18.1715 16.7718 18.2859 16.6002 18.2859H15.1716C15.0002 18.2859 14.8858 18.1717 14.8858 18.0001V16.5715Z" fill="black"/>
<path d="M14.8857 0.857194V3.71434C14.8857 4.20003 15.2572 4.57153 15.7429 4.57153H16.3143C16.7999 4.57153 17.1714 4.20004 17.1714 3.71434L17.1712 0.857194C17.1712 0.371505 16.7998 0 16.3141 0H15.7427C15.257 0 14.8857 0.371291 14.8857 0.857194H14.8857ZM16.5999 0.857194V3.71434C16.5999 3.88573 16.4857 4.00013 16.3141 4.00013H15.7427C15.5713 4.00013 15.4569 3.88593 15.4569 3.71434L15.4571 0.857194C15.4571 0.685796 15.5713 0.571398 15.7429 0.571398H16.3143C16.4857 0.571398 16.5999 0.685597 16.5999 0.857194V0.857194Z" fill="black"/>
<path d="M5.45707 4.57137C5.94276 4.57137 6.31427 4.19988 6.31427 3.71418V0.85724C6.31427 0.371551 5.94278 4.57764e-05 5.45707 4.57764e-05H4.8857C4.40001 4.57764e-05 4.0285 0.371536 4.0285 0.85724V3.71438C4.0285 4.20007 4.39999 4.57158 4.8857 4.57158L5.45707 4.57137ZM4.59988 3.71438V0.85724C4.59988 0.685842 4.71408 0.571444 4.88568 0.571444H5.45705C5.62845 0.571444 5.74285 0.685643 5.74285 0.85724V3.71438C5.74285 3.88578 5.62865 4.00018 5.45705 4.00018H4.88568C4.71408 3.99998 4.59988 3.88578 4.59988 3.71438Z" fill="black"/>
</svg>
