<svg width="30" height="30" viewBox="0 0 30 30" stroke="#000" xmlns="http://www.w3.org/2000/svg">
<path fill-rule="evenodd" clip-rule="evenodd" d="M19.8092 0.791848C16.5795 -0.301341 13.0738 -0.261568 9.86972 0.904611L9.87519 0.91964C8.83964 1.39253 8.12 2.43722 8.12 3.64999C8.12 5.30685 9.46315 6.64999 11.12 6.64999C11.3976 6.64999 11.6663 6.6123 11.9215 6.54174L11.9218 6.54277L11.9353 6.53788C12.0405 6.50824 12.1434 6.47299 12.2436 6.43249C14.0773 5.8425 16.0553 5.85561 17.8855 6.47511C19.8233 7.13102 21.4799 8.42757 22.5821 10.1511C23.6843 11.8746 24.1665 13.9222 23.9491 15.9564C23.7317 17.9906 22.8277 19.8901 21.3862 21.3417C19.9446 22.7934 18.0515 23.7106 16.0188 23.9421C13.9862 24.1737 11.9353 23.7059 10.2041 22.6157C8.47298 21.5256 7.1649 19.8781 6.49548 17.945C5.82605 16.0118 5.83523 13.9082 6.5215 11.9809L6.51658 11.9792C6.62249 11.6723 6.68001 11.3429 6.68001 11C6.68001 9.34315 5.33686 8 3.68001 8C2.29511 8 1.12939 8.9384 0.784019 10.214C-0.274673 13.3586 -0.26153 16.7683 0.825784 19.9083C1.94149 23.1302 4.12162 25.876 7.00687 27.6929C9.89212 29.5098 13.3103 30.2896 16.6981 29.9036C20.0858 29.5176 23.241 27.9889 25.6436 25.5695C28.0462 23.1501 29.5528 19.9843 29.9151 16.594C30.2774 13.2036 29.4738 9.79094 27.6368 6.91844C25.7998 4.04595 23.0389 1.88504 19.8092 0.791848Z" fill="url(#paint0_angular_7_37)"/>
<defs>
<radialGradient id="paint0_angular_7_37" cx="0" cy="0" r="1" gradientUnits="userSpaceOnUse" gradientTransform="translate(15 15) rotate(-135) scale(14.8493)">
<stop stop-color="white"/>
<stop offset="1" stop-color="white" stop-opacity="0"/>
</radialGradient>
</defs>
</svg>
