<svg width="24" height="24" viewBox="0 0 24 24" fill="none" xmlns="http://www.w3.org/2000/svg">
<g filter="url(#filter0_b_15_182)">
<path d="M12 0C9.62663 0 7.30655 0.703788 5.33316 2.02236C3.35977 3.34094 1.8217 5.21508 0.913451 7.4078C0.00519939 9.60051 -0.232441 12.0133 0.230582 14.3411C0.693605 16.6689 1.83649 18.807 3.51472 20.4853C5.19295 22.1635 7.33115 23.3064 9.65892 23.7694C11.9867 24.2324 14.3995 23.9948 16.5922 23.0865C18.7849 22.1783 20.6591 20.6402 21.9776 18.6668C23.2962 16.6934 24 14.3734 24 12C24 8.8174 22.7357 5.76515 20.4853 3.51472C18.2348 1.26428 15.1826 0 12 0V0ZM6.1584 8.6808C6.30073 8.3377 6.54468 8.0464 6.85745 7.84604C7.17022 7.64568 7.53683 7.54586 7.908 7.56C9.2664 7.56 10.6248 7.56 11.988 7.56C13.3512 7.56 14.7144 7.56 16.068 7.56C16.4351 7.54439 16.7985 7.63888 17.1116 7.83132C17.4246 8.02376 17.673 8.30537 17.8248 8.64C17.8553 8.68234 17.8752 8.73137 17.8829 8.783C17.8905 8.83462 17.8857 8.88733 17.8688 8.93669C17.8518 8.98606 17.8233 9.03065 17.7856 9.06672C17.7479 9.10279 17.7021 9.12929 17.652 9.144L12.24 11.964C12.1717 12.0032 12.0943 12.0238 12.0156 12.0238C11.9369 12.0238 11.8595 12.0032 11.7912 11.964L6.3096 9.12C6.26608 9.10703 6.22628 9.08387 6.1935 9.05243C6.16072 9.021 6.13591 8.9822 6.12112 8.93926C6.10634 8.89632 6.10201 8.85047 6.10849 8.80552C6.11498 8.76057 6.13209 8.71781 6.1584 8.6808ZM17.9664 14.8944C17.8982 15.3297 17.6752 15.7257 17.3383 16.0097C17.0014 16.2937 16.5734 16.4465 16.1328 16.44C15.0192 16.44 13.9056 16.44 12.7944 16.44H7.9032C7.48801 16.4492 7.08178 16.3186 6.7497 16.0692C6.41762 15.8198 6.17895 15.4661 6.072 15.0648C6.029 14.9084 6.00642 14.747 6.0048 14.5848C6.0048 13.2792 6.0048 11.9736 6.0048 10.6656C6.0048 10.3272 6.216 10.2024 6.5208 10.3584C8.2248 11.2448 9.9272 12.1328 11.628 13.0224C11.7424 13.0902 11.873 13.126 12.006 13.126C12.139 13.126 12.2696 13.0902 12.384 13.0224C14.0768 12.1344 15.772 11.2544 17.4696 10.3824C17.5176 10.3544 17.5693 10.3334 17.6232 10.32C17.669 10.3042 17.7181 10.3002 17.7659 10.3086C17.8136 10.317 17.8585 10.3374 17.8962 10.3679C17.9339 10.3984 17.9632 10.4379 17.9813 10.4829C17.9995 10.5278 18.0059 10.5767 18 10.6248C18 11.756 18 12.8864 18 14.016C18.0129 14.3092 18.0017 14.603 17.9664 14.8944Z" fill="white" fill-opacity="0.2"/>
</g>
<defs>
<filter id="filter0_b_15_182" x="-4" y="-4" width="32" height="32" filterUnits="userSpaceOnUse" color-interpolation-filters="sRGB">
<feFlood flood-opacity="0" result="BackgroundImageFix"/>
<feGaussianBlur in="BackgroundImage" stdDeviation="2"/>
<feComposite in2="SourceAlpha" operator="in" result="effect1_backgroundBlur_15_182"/>
<feBlend mode="normal" in="SourceGraphic" in2="effect1_backgroundBlur_15_182" result="shape"/>
</filter>
</defs>
</svg>
