<svg width="21" height="13" viewBox="0 0 21 13" fill="none" xmlns="http://www.w3.org/2000/svg">
<path opacity=".6" d="M20.5035 5.77616C19.4148 4.42099 15.5271 0 10.7284 0C5.92974 0.000154957 2.04194 4.42099 0.953355 5.77616C0.642339 6.15382 0.642339 6.70924 0.953355 7.1092C2.04198 8.46438 5.92974 12.8854 10.7284 12.8854C15.5271 12.8854 19.4149 8.46438 20.5035 7.1092C20.7923 6.73155 20.7923 6.15384 20.5035 5.77616V5.77616ZM10.7284 11.5523C6.64066 11.5523 3.10831 7.59788 2.1308 6.44264C3.08601 5.2652 6.64066 1.33296 10.7284 1.33296C14.8161 1.33296 18.3485 5.26524 19.326 6.44264C18.3485 7.62009 14.8161 11.5523 10.7284 11.5523Z" fill="black"/>
<path opacity=".6" d="M10.7284 2.48819C8.55125 2.48819 6.77393 4.26551 6.77393 6.44264C6.77393 8.61977 8.55125 10.3971 10.7284 10.3971C12.9055 10.3971 14.6828 8.61977 14.6828 6.44264C14.6828 4.26551 12.9055 2.48819 10.7284 2.48819ZM10.7284 9.06413C9.28441 9.06413 8.10697 7.88668 8.10697 6.44272C8.10697 4.99876 9.28441 3.82131 10.7284 3.82131C12.1723 3.82131 13.3498 4.99876 13.3498 6.44272C13.3498 7.88668 12.1723 9.06413 10.7284 9.06413V9.06413Z" fill="black"/>
</svg>
