<svg width="24" height="24" viewBox="0 0 24 24" fill="none" xmlns="http://www.w3.org/2000/svg">
<g filter="url(#filter0_b_15_175)">
<path d="M12 0C5.38105 0 0 5.38105 0 12C0 18.6189 5.38105 24 12 24C18.6189 24 24 18.6189 24 12C24 5.38105 18.6189 0 12 0ZM18.5937 16.4463C18.3663 17.0021 17.9621 17.5579 17.7095 17.8105C16.2695 19.2505 12.4042 17.9621 9.22105 14.7789C6.03789 11.5958 4.74947 7.75579 6.18947 6.29053C6.44211 6.03789 7.02316 5.63368 7.55368 5.40632C7.95789 5.22947 8.43789 5.35579 8.71579 5.70947L10.3074 7.73053C10.6358 8.13474 10.5853 8.74105 10.1811 9.09474C9.77684 9.44842 9.49895 9.70105 9.42316 9.77684C8.81684 10.3832 9.70105 11.6716 11.04 13.0105C12.3789 14.3495 13.6421 15.2589 14.2737 14.6274C14.3495 14.5516 14.6021 14.2737 14.9558 13.8695C15.3095 13.4653 15.8905 13.4147 16.32 13.7432L18.3411 15.3347C18.6695 15.5368 18.7705 16.0168 18.5937 16.4463Z" fill="white" fill-opacity="0.2"/>
</g>
<defs>
<filter id="filter0_b_15_175" x="-4" y="-4" width="32" height="32" filterUnits="userSpaceOnUse" color-interpolation-filters="sRGB">
<feFlood flood-opacity="0" result="BackgroundImageFix"/>
<feGaussianBlur in="BackgroundImage" stdDeviation="2"/>
<feComposite in2="SourceAlpha" operator="in" result="effect1_backgroundBlur_15_175"/>
<feBlend mode="normal" in="SourceGraphic" in2="effect1_backgroundBlur_15_175" result="shape"/>
</filter>
</defs>
</svg>
