<svg width="357" height="357" viewBox="0 0 357 357" fill="none" xmlns="http://www.w3.org/2000/svg">
<g filter="url(#filter0_b_14_85)">
<path fill-rule="evenodd" clip-rule="evenodd" d="M235.729 9.42297C197.296 -3.58597 155.578 -3.11267 117.449 10.7648L117.514 10.9428C105.191 16.5703 96.6279 29.002 96.6279 43.4338C96.6279 63.1503 112.611 79.1338 132.328 79.1338C135.631 79.1338 138.829 78.6852 141.865 77.8457L141.87 77.8589L142.043 77.7959C143.286 77.4452 144.502 77.0288 145.686 76.5507C167.51 69.5257 191.053 69.6802 212.838 77.0537C235.897 84.8591 255.61 100.288 268.726 120.798C281.843 141.307 287.58 165.674 284.993 189.881C282.406 214.088 271.649 236.692 254.495 253.966C237.34 271.241 214.813 282.155 190.624 284.911C166.435 287.667 142.03 282.1 121.429 269.127C100.828 256.154 85.2621 236.55 77.2959 213.545C69.3298 190.54 69.439 165.508 77.6056 142.573L77.5476 142.552C78.8081 138.901 79.4926 134.98 79.4926 130.9C79.4926 111.183 63.5091 95.2 43.7926 95.2C27.3163 95.2 13.447 106.362 9.33332 121.536C-3.26885 158.959 -3.11368 199.539 9.82661 236.908C23.1035 275.25 49.0471 307.924 83.3815 329.545C117.716 351.167 158.392 360.446 198.707 355.852C239.021 351.259 276.567 333.068 305.158 304.277C333.749 275.486 351.677 237.813 355.989 197.468C360.301 157.123 350.738 116.512 328.878 82.3294C307.017 48.1467 274.162 22.4319 235.729 9.42297Z" fill="#FF5363"/>
</g>
<defs>
<filter id="filter0_b_14_85" x="-4" y="-4" width="365" height="365" filterUnits="userSpaceOnUse" color-interpolation-filters="sRGB">
<feFlood flood-opacity="0" result="BackgroundImageFix"/>
<feGaussianBlur in="BackgroundImage" stdDeviation="2"/>
<feComposite in2="SourceAlpha" operator="in" result="effect1_backgroundBlur_14_85"/>
<feBlend mode="normal" in="SourceGraphic" in2="effect1_backgroundBlur_14_85" result="shape"/>
</filter>
</defs>
</svg>
