<svg width="610" height="610" viewBox="0 0 610 610" fill="none" xmlns="http://www.w3.org/2000/svg">
<g filter="url(#filter0_b_38_2)">
<path fill-rule="evenodd" clip-rule="evenodd" d="M402.787 16.1009C337.116 -6.12728 265.833 -5.31857 200.684 18.3937L200.794 18.6979C179.739 28.3135 165.107 49.5553 165.107 74.2147C165.107 107.904 192.417 135.215 226.106 135.215C231.75 135.215 237.215 134.448 242.402 133.014L242.41 133.036L242.705 132.929C244.83 132.33 246.908 131.618 248.933 130.8C286.223 118.797 326.45 119.062 363.672 131.66C403.074 144.997 436.757 171.36 459.168 206.405C481.58 241.449 491.384 283.084 486.963 324.446C482.543 365.809 464.162 404.431 434.851 433.948C405.54 463.465 367.047 482.114 325.716 486.823C284.385 491.532 242.683 482.02 207.483 459.853C172.283 437.686 145.686 404.189 132.074 364.881C118.463 325.573 118.649 282.8 132.603 243.612L132.504 243.577C134.658 237.337 135.828 230.638 135.828 223.667C135.828 189.977 108.517 162.667 74.8277 162.667C46.6752 162.667 22.977 181.738 15.9479 207.666C-5.58543 271.611 -5.32035 340.949 16.7906 404.801C39.4766 470.315 83.8059 526.144 142.473 563.088C201.139 600.033 270.642 615.887 339.527 608.039C408.411 600.191 472.566 569.108 521.419 519.913C570.271 470.718 600.905 406.348 608.273 337.41C615.64 268.473 599.301 199.082 561.948 140.675C524.594 82.2675 468.457 38.329 402.787 16.1009Z" fill="#FF5262"/>
</g>
<defs>
<filter id="filter0_b_38_2" x="-4" y="-4" width="618" height="618" filterUnits="userSpaceOnUse" color-interpolation-filters="sRGB">
<feFlood flood-opacity="0" result="BackgroundImageFix"/>
<feGaussianBlur in="BackgroundImage" stdDeviation="2"/>
<feComposite in2="SourceAlpha" operator="in" result="effect1_backgroundBlur_38_2"/>
<feBlend mode="normal" in="SourceGraphic" in2="effect1_backgroundBlur_38_2" result="shape"/>
</filter>
</defs>
</svg>
