<svg width="53" height="40" viewBox="0 0 53 40" fill="none" xmlns="http://www.w3.org/2000/svg">
<path d="M9.67742 0C4.34968 0 0 4.34968 0 9.67742V30.3226C0 35.6503 4.34968 40 9.67742 40H43.2258C48.5535 40 52.9032 35.6503 52.9032 30.3226V9.67742C52.9032 4.34968 48.5535 0 43.2258 0H9.67742ZM9.67742 3.87097H43.2258C46.476 3.87097 49.0323 6.42723 49.0323 9.67742V30.3226C49.0323 33.5728 46.476 36.129 43.2258 36.129H9.67742C6.42723 36.129 3.87097 33.5728 3.87097 30.3226V9.67742C3.87097 6.42723 6.42723 3.87097 9.67742 3.87097ZM20.7057 9.67742C20.4465 9.66934 20.1883 9.71341 19.9464 9.80705C19.7046 9.90069 19.484 10.042 19.2979 10.2225C19.1117 10.4031 18.9637 10.6192 18.8626 10.858C18.7616 11.0968 18.7096 11.3536 18.7097 11.6129V28.3871C18.7071 28.8673 18.8831 29.3313 19.2036 29.689C19.524 30.0467 19.9659 30.2725 20.4435 30.3226C20.8337 30.3648 21.2274 30.2874 21.5726 30.1008L37.0564 21.7137C37.3638 21.5478 37.6207 21.302 37.7996 21.002C37.9786 20.7021 38.0731 20.3594 38.0731 20.0101C38.0731 19.6608 37.9786 19.318 37.7996 19.0181C37.6207 18.7182 37.3638 18.4723 37.0564 18.3065L21.5726 9.91935C21.3066 9.77172 21.0096 9.68883 20.7057 9.67742ZM22.5806 14.879L32.0564 20L22.5806 25.1412V14.879Z" fill="#636363"/>
</svg>
