<svg width="40" height="40" viewBox="0 0 40 40" fill="none" xmlns="http://www.w3.org/2000/svg">
<path d="M38.1818 18.1819H19.9999C19.5177 18.1819 19.0553 18.3734 18.7143 18.7144C18.3733 19.0554 18.1818 19.5179 18.1818 20.0001V38.1819C18.1818 38.6641 18.3733 39.1266 18.7143 39.4675C19.0553 39.8085 19.5177 40.0001 19.9999 40.0001H38.1818C38.664 40.0001 39.1264 39.8085 39.4674 39.4675C39.8084 39.1266 39.9999 38.6641 39.9999 38.1819V20.0001C39.9999 19.5179 39.8084 19.0554 39.4674 18.7144C39.1264 18.3734 38.664 18.1819 38.1818 18.1819ZM36.3636 36.3637H21.8181V21.8182H36.3636V36.3637Z" fill="#636363"/>
<path d="M3.63636 20V3.63636H20C20.4822 3.63636 20.9447 3.44481 21.2856 3.10383C21.6266 2.76286 21.8182 2.30039 21.8182 1.81818C21.8182 1.33597 21.6266 0.873508 21.2856 0.532533C20.9447 0.191558 20.4822 0 20 0H1.81818C1.33597 0 0.873508 0.191558 0.532533 0.532533C0.191558 0.873508 0 1.33597 0 1.81818V20C0 20.4822 0.191558 20.9447 0.532533 21.2856C0.873508 21.6266 1.33597 21.8182 1.81818 21.8182C2.30039 21.8182 2.76286 21.6266 3.10383 21.2856C3.44481 20.9447 3.63636 20.4822 3.63636 20Z" fill="#636363"/>
<path d="M10.9091 9.09082C10.4269 9.09082 9.96445 9.28238 9.62348 9.62335C9.2825 9.96433 9.09094 10.4268 9.09094 10.909V29.0908C9.09094 29.573 9.2825 30.0355 9.62348 30.3765C9.96445 30.7174 10.4269 30.909 10.9091 30.909C11.3913 30.909 11.8538 30.7174 12.1948 30.3765C12.5357 30.0355 12.7273 29.573 12.7273 29.0908V12.7272H29.0909C29.5732 12.7272 30.0356 12.5356 30.3766 12.1947C30.7176 11.8537 30.9091 11.3912 30.9091 10.909C30.9091 10.4268 30.7176 9.96433 30.3766 9.62335C30.0356 9.28238 29.5732 9.09082 29.0909 9.09082H10.9091Z" fill="#636363"/>
</svg>
