<svg width="55" height="40" viewBox="0 0 55 40" fill="none" xmlns="http://www.w3.org/2000/svg">
<path d="M31.1666 23.9024C29.0071 26.0572 25.5071 26.0572 23.3475 23.9024C21.1887 21.7475 21.1887 18.2535 23.3475 16.0986C25.5071 13.9437 29.0071 13.9437 31.1666 16.0986C33.3255 18.2535 33.3255 21.7475 31.1666 23.9024Z" fill="#636363"/>
<path d="M38.7194 32.263C38.0459 32.263 37.3723 32.0059 36.8595 31.4911C35.8339 30.4641 35.8359 28.8001 36.8628 27.7752C38.9439 25.698 40.0898 22.9367 40.0898 20C40.0898 17.0633 38.9439 14.3019 36.8628 12.2248C35.8359 11.1991 35.8339 9.53581 36.8595 8.50819C37.8844 7.48124 39.5484 7.47925 40.5754 8.50487C43.6516 11.5751 45.3455 15.657 45.3455 20C45.3455 24.3423 43.6516 28.4248 40.5754 31.4951C40.0626 32.0072 39.391 32.263 38.7194 32.263Z" fill="#636363"/>
<path d="M44.6633 40C43.9897 40 43.3161 39.7429 42.8033 39.2288C41.7777 38.2012 41.7797 36.5379 42.8067 35.5122C46.9583 31.3685 49.2454 25.8598 49.2454 20.0003C49.2454 14.1409 46.9583 8.63211 42.8067 4.48843C41.7797 3.4628 41.7777 1.79948 42.8033 0.771867C43.829 -0.255086 45.4923 -0.257079 46.5192 0.768545C51.666 5.9053 54.501 12.7353 54.5004 20.0003C54.5004 27.2654 51.666 34.096 46.5192 39.2328C46.0064 39.7443 45.3348 40 44.6633 40Z" fill="#636363"/>
<path d="M15.7817 32.2632C15.1102 32.2632 14.4386 32.0075 13.9251 31.4953C10.8489 28.4251 9.15503 24.3425 9.15503 20.0002C9.15503 15.6573 10.8489 11.5754 13.9251 8.50512C14.9521 7.4795 16.616 7.48083 17.641 8.50844C18.6666 9.5354 18.6646 11.1994 17.6377 12.225C15.5565 14.3022 14.4107 17.0635 14.4107 20.0002C14.4107 22.9369 15.5565 25.6983 17.6377 27.7754C18.6646 28.8004 18.6666 30.4644 17.641 31.4913C17.1282 32.0055 16.4546 32.2632 15.7817 32.2632Z" fill="#636363"/>
<path d="M9.83776 39.9998C9.16552 39.9998 8.49395 39.7441 7.98114 39.232C2.83442 34.0952 0 27.2652 0 20.0002C0 12.7344 2.83442 5.90448 7.98114 0.767725C9.00809 -0.257235 10.6721 -0.255906 11.697 0.77171C12.7227 1.79866 12.7207 3.46198 11.6937 4.48761C7.54206 8.63129 5.255 14.14 5.255 19.9995C5.255 25.859 7.54206 31.3684 11.6937 35.5121C12.7207 36.5377 12.7227 38.201 11.697 39.2286C11.1842 39.7428 10.5107 39.9998 9.83776 39.9998Z" fill="#636363"/>
</svg>
