<svg width="20" height="12" viewBox="0 0 20 12" stroke="#CBC72C" xmlns="http://www.w3.org/2000/svg">
<path d="M3.90482 7.32654C5.27743 7.32654 6.39397 6.20984 6.39397 4.83727C6.39397 3.4647 5.27727 2.34811 3.90482 2.34811C2.53252 2.34811 1.41554 3.46466 1.41554 4.83727C1.41554 6.20988 2.53224 7.32654 3.90482 7.32654V7.32654ZM3.90482 3.39553C4.69985 3.39553 5.34656 4.04223 5.34656 4.83727C5.34656 5.6323 4.69985 6.27901 3.90482 6.27901C3.10978 6.27901 2.46308 5.63215 2.46308 4.83727C2.46308 4.04239 3.10978 3.39553 3.90482 3.39553Z" fill="black"/>
<path d="M1.04848 10.9896C1.04848 9.92007 1.91855 9.05015 2.98795 9.05015H4.82156C4.87643 9.05015 4.93084 9.05232 4.98463 9.05697C5.13638 9.07015 5.28705 9.01915 5.39724 8.91793C5.50451 8.81903 5.56388 8.68387 5.56388 8.53754C5.56388 8.27045 5.35942 8.04135 5.09809 8.01623C5.00694 8.00755 4.91471 8.0029 4.82139 8.0029H2.98779C1.34097 8.00243 0.000900269 9.3425 0.000900269 10.9896V11.2049H1.04844L1.04848 10.9896Z" fill="black"/>
<path d="M5.74965 11.2047H6.79718V9.91519C6.79718 8.70626 7.78071 7.72274 8.98979 7.72274H11.0117C12.2207 7.72274 13.2043 8.70626 13.2043 9.91519V11.2047H14.2519V9.91519C14.2519 8.82158 13.7028 7.80845 12.783 7.20548C12.2541 6.85856 11.6416 6.6752 11.0118 6.6752H8.98991C7.98916 6.6752 7.05929 7.13075 6.4383 7.92504C5.98782 8.50122 5.74989 9.18943 5.74989 9.91519L5.75004 11.2047H5.74965Z" fill="black"/>
<path d="M17.0139 8.00235H15.1803C15.129 8.00235 15.0781 8.0039 15.0274 8.00654C14.745 8.02204 14.5237 8.25253 14.5237 8.53141C14.5237 8.67542 14.5835 8.8143 14.6878 8.91274C14.7929 9.01163 14.9304 9.06124 15.0736 9.05302C15.109 9.05085 15.1445 9.04992 15.1803 9.04992H17.0139C18.0834 9.04992 18.9534 9.92 18.9534 10.9894V11.2047L20.0009 11.2049V10.9896C20.0009 9.34242 18.6608 8.00238 17.0139 8.00238L17.0139 8.00235Z" fill="black"/>
<path d="M16.0968 7.32654C17.4694 7.32654 18.5861 6.20984 18.5861 4.83727C18.5861 3.4647 17.4694 2.34811 16.0968 2.34811C14.7241 2.34811 13.6074 3.46466 13.6074 4.83727C13.6074 6.20988 14.7244 7.32654 16.0968 7.32654ZM16.0968 3.39553C16.8919 3.39553 17.5386 4.04223 17.5386 4.83727C17.5386 5.6323 16.8917 6.27901 16.0968 6.27901C15.3019 6.27901 14.6551 5.63215 14.6551 4.83727C14.6549 4.04239 15.3019 3.39553 16.0968 3.39553Z" fill="black"/>
<path d="M10.0008 6.26267C11.7273 6.26267 13.1322 4.85799 13.1322 3.13133C13.1322 1.40468 11.7275 0 10.0008 0C8.27417 0 6.86949 1.40468 6.86949 3.13133C6.86949 4.85783 8.27417 6.26267 10.0008 6.26267ZM10.0008 1.04722C11.1497 1.04722 12.0846 1.98209 12.0846 3.13118C12.0846 4.2801 11.1497 5.21498 10.0008 5.21498C8.85174 5.21498 7.91687 4.2801 7.91687 3.13118C7.91687 1.98209 8.85174 1.04722 10.0008 1.04722V1.04722Z" fill="black"/>
</svg>
