<svg width="709" height="709" viewBox="0 0 709 709" fill="none" xmlns="http://www.w3.org/2000/svg">
<g filter="url(#filter0_b_38_8)">
<path fill-rule="evenodd" clip-rule="evenodd" d="M468.157 18.714C391.829 -7.12171 308.976 -6.18175 233.254 21.3789L233.382 21.7323C208.909 32.9084 191.903 57.5977 191.903 86.2591C191.903 125.416 223.646 157.159 262.803 157.159C269.362 157.159 275.713 156.268 281.742 154.601L281.752 154.627C281.867 154.585 281.982 154.544 282.098 154.502C284.566 153.805 286.979 152.979 289.33 152.03C332.673 138.078 379.431 138.384 422.694 153.028C468.491 168.53 507.64 199.171 533.689 239.903C559.738 280.635 571.133 329.027 565.995 377.102C560.857 425.178 539.494 470.068 505.425 504.375C471.357 538.683 426.616 560.359 378.578 565.832C330.539 571.306 282.07 560.249 241.157 534.485C200.244 508.721 169.33 469.787 153.509 424.099C137.688 378.411 137.905 328.697 154.124 283.149L154.009 283.108C156.512 275.856 157.872 268.07 157.872 259.967C157.872 220.81 126.129 189.067 86.9717 189.067C54.2491 189.067 26.704 211.235 18.5351 241.372C-6.49191 315.694 -6.18347 396.284 19.5156 470.498C45.8835 546.644 97.4072 611.535 165.595 654.475C233.783 697.415 314.566 715.843 394.63 706.721C474.694 697.599 549.261 661.471 606.042 604.292C662.823 547.114 698.429 472.296 706.992 392.17C715.555 312.045 696.564 231.392 653.149 163.506C609.734 95.6191 544.485 44.5496 468.157 18.714Z" fill="#CBC72C"/>
</g>
<defs>
<filter id="filter0_b_38_8" x="-4" y="-4" width="717" height="717" filterUnits="userSpaceOnUse" color-interpolation-filters="sRGB">
<feFlood flood-opacity="0" result="BackgroundImageFix"/>
<feGaussianBlur in="BackgroundImage" stdDeviation="2"/>
<feComposite in2="SourceAlpha" operator="in" result="effect1_backgroundBlur_38_8"/>
<feBlend mode="normal" in="SourceGraphic" in2="effect1_backgroundBlur_38_8" result="shape"/>
</filter>
</defs>
</svg>
